<svg width="18" height="18" viewBox="0 0 18 18" fill="none" xmlns="http://www.w3.org/2000/svg">
<mask id="mask0_560_5342" style="mask-type:alpha" maskUnits="userSpaceOnUse" x="0" y="0" width="18" height="18">
<rect width="18" height="18" transform="matrix(-1 0 0 1 18 0)" fill="#FFFFFF"/>
</mask>
<g mask="url(#mask0_560_5342)">
<path d="M7.78213 9.00819L10.8371 5.95344C10.9408 5.84956 10.9939 5.719 10.9964 5.56175C10.9988 5.40463 10.9457 5.27169 10.8371 5.16294C10.7283 5.05431 10.5966 5 10.4418 5C10.2871 5 10.1553 5.05431 10.0466 5.16294L6.67588 8.53363C6.60575 8.60388 6.55625 8.67794 6.52737 8.75581C6.4985 8.83369 6.48406 8.91781 6.48406 9.00819C6.48406 9.09856 6.4985 9.18269 6.52737 9.26056C6.55625 9.33844 6.60575 9.4125 6.67588 9.48275L10.0466 12.8534C10.1504 12.9572 10.281 13.0103 10.4383 13.0128C10.5954 13.0152 10.7283 12.9621 10.8371 12.8534C10.9457 12.7447 11 12.6129 11 12.4582C11 12.3034 10.9457 12.1717 10.8371 12.0629L7.78213 9.00819Z" fill="#FFFFFF"/>
</g>
</svg>
