<svg width="24" height="24" viewBox="0 0 24 24" fill="none" xmlns="http://www.w3.org/2000/svg">
<mask id="mask0_672_17738" style="mask-type:alpha" maskUnits="userSpaceOnUse" x="0" y="0" width="24" height="24">
<rect width="24" height="24" fill="#D9D9D9"/>
</mask>
<g mask="url(#mask0_672_17738)">
<path d="M4.17969 18.2868C3.96719 18.2868 3.7891 18.2303 3.64544 18.1172C3.5016 18.0043 3.42969 17.8642 3.42969 17.697C3.42969 17.53 3.5016 17.39 3.64544 17.2771C3.7891 17.1643 3.96719 17.1079 4.17969 17.1079H19.6797C19.8922 17.1079 20.0703 17.1643 20.2139 17.2773C20.3578 17.3903 20.4297 17.5305 20.4297 17.6976C20.4297 17.8647 20.3578 18.0047 20.2139 18.1176C20.0703 18.2304 19.8922 18.2868 19.6797 18.2868H4.17969ZM4.17969 12.7329C3.96719 12.7329 3.7891 12.6764 3.64544 12.5634C3.5016 12.4503 3.42969 12.3102 3.42969 12.1432C3.42969 11.976 3.5016 11.836 3.64544 11.7232C3.7891 11.6103 3.96719 11.5538 4.17969 11.5538H19.6797C19.8922 11.5538 20.0703 11.6104 20.2139 11.7234C20.3578 11.8365 20.4297 11.9766 20.4297 12.1436C20.4297 12.3108 20.3578 12.4507 20.2139 12.5635C20.0703 12.6765 19.8922 12.7329 19.6797 12.7329H4.17969ZM4.17969 7.17891C3.96719 7.17891 3.7891 7.12244 3.64544 7.00951C3.5016 6.89645 3.42969 6.75633 3.42969 6.58916C3.42969 6.42212 3.5016 6.28213 3.64544 6.1692C3.7891 6.0564 3.96719 6 4.17969 6H19.6797C19.8922 6 20.0703 6.05653 20.2139 6.16959C20.3578 6.28253 20.4297 6.42258 20.4297 6.58975C20.4297 6.75679 20.3578 6.89677 20.2139 7.00971C20.0703 7.12251 19.8922 7.17891 19.6797 7.17891H4.17969Z" fill="white"/>
</g>
</svg>
