<svg width="18" height="18" viewBox="0 0 18 18" fill="none" xmlns="http://www.w3.org/2000/svg">
<mask id="mask0_717_7978" style="mask-type:alpha" maskUnits="userSpaceOnUse" x="0" y="0" width="18" height="18">
<rect width="18" height="18" fill="#D9D9D9"/>
</mask>
<g mask="url(#mask0_717_7978)">
<path d="M6 8.28838C6.18363 8.28838 6.34013 8.22375 6.4695 8.0945C6.59875 7.96512 6.66338 7.80863 6.66338 7.625C6.66338 7.44137 6.59875 7.28488 6.4695 7.1555C6.34013 7.02625 6.18363 6.96163 6 6.96163C5.81638 6.96163 5.65988 7.02625 5.5305 7.1555C5.40125 7.28488 5.33663 7.44137 5.33663 7.625C5.33663 7.80863 5.40125 7.96512 5.5305 8.0945C5.65988 8.22375 5.81638 8.28838 6 8.28838ZM9 8.28838C9.18363 8.28838 9.34013 8.22375 9.4695 8.0945C9.59875 7.96512 9.66338 7.80863 9.66338 7.625C9.66338 7.44137 9.59875 7.28488 9.4695 7.1555C9.34013 7.02625 9.18363 6.96163 9 6.96163C8.81638 6.96163 8.65988 7.02625 8.5305 7.1555C8.40125 7.28488 8.33663 7.44137 8.33663 7.625C8.33663 7.80863 8.40125 7.96512 8.5305 8.0945C8.65988 8.22375 8.81638 8.28838 9 8.28838ZM12 8.28838C12.1836 8.28838 12.3401 8.22375 12.4695 8.0945C12.5988 7.96512 12.6634 7.80863 12.6634 7.625C12.6634 7.44137 12.5988 7.28488 12.4695 7.1555C12.3401 7.02625 12.1836 6.96163 12 6.96163C11.8164 6.96163 11.6599 7.02625 11.5305 7.1555C11.4013 7.28488 11.3366 7.44137 11.3366 7.625C11.3366 7.80863 11.4013 7.96512 11.5305 8.0945C11.6599 8.22375 11.8164 8.28838 12 8.28838ZM1.875 15.9039V3.35581C1.875 2.97694 2.00625 2.65625 2.26875 2.39375C2.53125 2.13125 2.85194 2 3.23081 2H14.7692C15.1481 2 15.4688 2.13125 15.7313 2.39375C15.9938 2.65625 16.125 2.97694 16.125 3.35581V11.8942C16.125 12.2731 15.9938 12.5938 15.7313 12.8563C15.4688 13.1188 15.1481 13.25 14.7692 13.25H4.52888L1.875 15.9039ZM4.05 12.125H14.7692C14.8269 12.125 14.8798 12.1009 14.9278 12.0528C14.9759 12.0048 15 11.9519 15 11.8942V3.35581C15 3.29806 14.9759 3.24519 14.9278 3.19719C14.8798 3.14906 14.8269 3.125 14.7692 3.125H3.23081C3.17306 3.125 3.12019 3.14906 3.07219 3.19719C3.02406 3.24519 3 3.29806 3 3.35581V13.1636L4.05 12.125Z" fill="#1AB6F9"/>
</g>
</svg>
