<svg width="29" height="28" viewBox="0 0 29 28" fill="none" xmlns="http://www.w3.org/2000/svg">
<mask id="mask0_717_7676" style="mask-type:alpha" maskUnits="userSpaceOnUse" x="0" y="0" width="29" height="28">
<rect x="0.5" width="28" height="28" fill="#D9D9D9"/>
</mask>
<g mask="url(#mask0_717_7676)">
<path d="M25 7.718V20.2818C25 20.8189 24.8201 21.2673 24.4604 21.627C24.1007 21.9867 23.6523 22.1666 23.1152 22.1666H5.88475C5.34769 22.1666 4.89931 21.9867 4.53958 21.627C4.17986 21.2673 4 20.8189 4 20.2818V7.718C4 7.18095 4.17986 6.73256 4.53958 6.37284C4.89931 6.01311 5.34769 5.83325 5.88475 5.83325H23.1152C23.6523 5.83325 24.1007 6.01311 24.4604 6.37284C24.8201 6.73256 25 7.18095 25 7.718ZM5.16667 10.2756H23.8333V7.718C23.8333 7.53834 23.7586 7.37374 23.609 7.22421C23.4595 7.07468 23.2949 6.99992 23.1152 6.99992H5.88475C5.70508 6.99992 5.54049 7.07468 5.39096 7.22421C5.24143 7.37374 5.16667 7.53834 5.16667 7.718V10.2756ZM5.16667 13.0575V20.2818C5.16667 20.4615 5.24143 20.6261 5.39096 20.7756C5.54049 20.9252 5.70508 20.9999 5.88475 20.9999H23.1152C23.2949 20.9999 23.4595 20.9252 23.609 20.7756C23.7586 20.6261 23.8333 20.4615 23.8333 20.2818V13.0575H5.16667Z" fill="white"/>
</g>
</svg>
