<svg width="24" height="24" viewBox="0 0 24 24" fill="none" xmlns="http://www.w3.org/2000/svg">
<g opacity="0.4" clip-path="url(#clip0_672_17609)">
<path d="M4.5 3.75L19.5 20.25" stroke="white" stroke-linecap="round" stroke-linejoin="round"/>
<path d="M14.5232 14.7751C13.7872 15.4442 12.8156 15.7935 11.822 15.7462C10.8285 15.6989 9.89446 15.2589 9.22537 14.5229C8.55627 13.7869 8.20695 12.8153 8.25425 11.8218C8.30154 10.8282 8.74158 9.89419 9.47755 9.2251" stroke="white" stroke-linecap="round" stroke-linejoin="round"/>
<path d="M12.707 8.31665C13.5043 8.46932 14.2305 8.87657 14.7765 9.4772C15.3225 10.0778 15.6589 10.8394 15.7352 11.6476" stroke="white" stroke-linecap="round" stroke-linejoin="round"/>
<path d="M19.5584 15.8531C21.6022 14.0231 22.5012 12 22.5012 12C22.5012 12 19.5013 5.25001 12.0013 5.25001C11.3518 5.24912 10.7033 5.3018 10.0625 5.40751" stroke="white" stroke-linecap="round" stroke-linejoin="round"/>
<path d="M6.9375 6.43115C3.11531 8.36615 1.5 11.9999 1.5 11.9999C1.5 11.9999 4.5 18.7499 12 18.7499C13.7574 18.7637 15.4927 18.3588 17.0625 17.5687" stroke="white" stroke-linecap="round" stroke-linejoin="round"/>
</g>
<defs>
<clipPath id="clip0_672_17609">
<rect width="24" height="24" fill="white"/>
</clipPath>
</defs>
</svg>
