<svg width="48" height="48" viewBox="0 0 48 48" fill="none" xmlns="http://www.w3.org/2000/svg">
<mask id="mask0_717_5984" style="mask-type:alpha" maskUnits="userSpaceOnUse" x="0" y="0" width="48" height="48">
<rect width="48" height="48" fill="#D9D9D9"/>
</mask>
<g mask="url(#mask0_717_5984)">
<path d="M7.231 40C6.31033 40 5.54167 39.6917 4.925 39.075C4.30833 38.4583 4 37.6897 4 36.769V15.231C4 14.3103 4.30833 13.5417 4.925 12.925C5.54167 12.3083 6.31033 12 7.231 12H13.146L16.846 8H27.231V10H17.7115L14.023 14H7.231C6.872 14 6.577 14.1153 6.346 14.346C6.11533 14.577 6 14.872 6 15.231V36.769C6 37.128 6.11533 37.423 6.346 37.654C6.577 37.8847 6.872 38 7.231 38H36.769C37.128 38 37.423 37.8847 37.654 37.654C37.8847 37.423 38 37.128 38 36.769V20.769H40V36.769C40 37.6897 39.6917 38.4583 39.075 39.075C38.4583 39.6917 37.6897 40 36.769 40H7.231ZM38 14V10H34V8H38V4H40V8H44V10H40V14H38ZM22 33.4615C24.0897 33.4615 25.8557 32.7403 27.298 31.298C28.7403 29.8557 29.4615 28.0897 29.4615 26C29.4615 23.9103 28.7403 22.1443 27.298 20.702C25.8557 19.2597 24.0897 18.5385 22 18.5385C19.9103 18.5385 18.1443 19.2597 16.702 20.702C15.2597 22.1443 14.5385 23.9103 14.5385 26C14.5385 28.0897 15.2597 29.8557 16.702 31.298C18.1443 32.7403 19.9103 33.4615 22 33.4615ZM22 31.4615C20.446 31.4615 19.1473 30.9397 18.104 29.896C17.0603 28.8527 16.5385 27.554 16.5385 26C16.5385 24.446 17.0603 23.1473 18.104 22.104C19.1473 21.0603 20.446 20.5385 22 20.5385C23.554 20.5385 24.8527 21.0603 25.896 22.104C26.9397 23.1473 27.4615 24.446 27.4615 26C27.4615 27.554 26.9397 28.8527 25.896 29.896C24.8527 30.9397 23.554 31.4615 22 31.4615Z" fill="white"/>
</g>
</svg>
