<svg width="24" height="24" viewBox="0 0 24 24" fill="none" xmlns="http://www.w3.org/2000/svg">
<g opacity="0.6">
<mask id="mask0_717_6272" style="mask-type:alpha" maskUnits="userSpaceOnUse" x="0" y="0" width="24" height="24">
<rect width="24" height="24" fill="#D9D9D9"/>
</mask>
<g mask="url(#mask0_717_6272)">
<path d="M5.6155 20.9998C5.15517 20.9998 4.77083 20.8456 4.4625 20.5373C4.15417 20.229 4 19.8446 4 19.3843V6.61529C4 6.15496 4.15417 5.77063 4.4625 5.46229C4.77083 5.15396 5.15517 4.99979 5.6155 4.99979H7.3845V2.76904H8.4615V4.99979H15.6155V2.76904H16.6155V4.99979H18.3845C18.8448 4.99979 19.2292 5.15396 19.5375 5.46229C19.8458 5.77063 20 6.15496 20 6.61529V19.3843C20 19.8446 19.8458 20.229 19.5375 20.5373C19.2292 20.8456 18.8448 20.9998 18.3845 20.9998H5.6155ZM5.6155 19.9998H18.3845C18.5385 19.9998 18.6796 19.9357 18.8077 19.8075C18.9359 19.6794 19 19.5383 19 19.3843V10.6153H5V19.3843C5 19.5383 5.06408 19.6794 5.19225 19.8075C5.32042 19.9357 5.4615 19.9998 5.6155 19.9998ZM5 9.61504H19V6.61529C19 6.46129 18.9359 6.32021 18.8077 6.19204C18.6796 6.06388 18.5385 5.99979 18.3845 5.99979H5.6155C5.4615 5.99979 5.32042 6.06388 5.19225 6.19204C5.06408 6.32021 5 6.46129 5 6.61529V9.61504ZM12 14.1535C11.7937 14.1535 11.6138 14.077 11.4605 13.9238C11.3073 13.7706 11.2308 13.5908 11.2308 13.3843C11.2308 13.178 11.3073 12.9982 11.4605 12.845C11.6138 12.6919 11.7937 12.6153 12 12.6153C12.2063 12.6153 12.3862 12.6919 12.5395 12.845C12.6927 12.9982 12.7692 13.178 12.7692 13.3843C12.7692 13.5908 12.6927 13.7706 12.5395 13.9238C12.3862 14.077 12.2063 14.1535 12 14.1535ZM8 14.1535C7.79367 14.1535 7.61383 14.077 7.4605 13.9238C7.30733 13.7706 7.23075 13.5908 7.23075 13.3843C7.23075 13.178 7.30733 12.9982 7.4605 12.845C7.61383 12.6919 7.79367 12.6153 8 12.6153C8.20633 12.6153 8.38617 12.6919 8.5395 12.845C8.69267 12.9982 8.76925 13.178 8.76925 13.3843C8.76925 13.5908 8.69267 13.7706 8.5395 13.9238C8.38617 14.077 8.20633 14.1535 8 14.1535ZM16 14.1535C15.7937 14.1535 15.6138 14.077 15.4605 13.9238C15.3073 13.7706 15.2308 13.5908 15.2308 13.3843C15.2308 13.178 15.3073 12.9982 15.4605 12.845C15.6138 12.6919 15.7937 12.6153 16 12.6153C16.2063 12.6153 16.3862 12.6919 16.5395 12.845C16.6927 12.9982 16.7693 13.178 16.7693 13.3843C16.7693 13.5908 16.6927 13.7706 16.5395 13.9238C16.3862 14.077 16.2063 14.1535 16 14.1535ZM12 17.9998C11.7937 17.9998 11.6138 17.9232 11.4605 17.77C11.3073 17.6169 11.2308 17.437 11.2308 17.2305C11.2308 17.0242 11.3073 16.8444 11.4605 16.691C11.6138 16.5379 11.7937 16.4613 12 16.4613C12.2063 16.4613 12.3862 16.5379 12.5395 16.691C12.6927 16.8444 12.7692 17.0242 12.7692 17.2305C12.7692 17.437 12.6927 17.6169 12.5395 17.77C12.3862 17.9232 12.2063 17.9998 12 17.9998ZM8 17.9998C7.79367 17.9998 7.61383 17.9232 7.4605 17.77C7.30733 17.6169 7.23075 17.437 7.23075 17.2305C7.23075 17.0242 7.30733 16.8444 7.4605 16.691C7.61383 16.5379 7.79367 16.4613 8 16.4613C8.20633 16.4613 8.38617 16.5379 8.5395 16.691C8.69267 16.8444 8.76925 17.0242 8.76925 17.2305C8.76925 17.437 8.69267 17.6169 8.5395 17.77C8.38617 17.9232 8.20633 17.9998 8 17.9998ZM16 17.9998C15.7937 17.9998 15.6138 17.9232 15.4605 17.77C15.3073 17.6169 15.2308 17.437 15.2308 17.2305C15.2308 17.0242 15.3073 16.8444 15.4605 16.691C15.6138 16.5379 15.7937 16.4613 16 16.4613C16.2063 16.4613 16.3862 16.5379 16.5395 16.691C16.6927 16.8444 16.7693 17.0242 16.7693 17.2305C16.7693 17.437 16.6927 17.6169 16.5395 17.77C16.3862 17.9232 16.2063 17.9998 16 17.9998Z" fill="white"/>
</g>
</g>
</svg>
