<svg width="36" height="36" viewBox="0 0 36 36" fill="none" xmlns="http://www.w3.org/2000/svg">
<g clip-path="url(#clip0_672_17223)">
<path opacity="0.2" d="M18.0008 4.5C15.2698 4.49984 12.6029 5.32798 10.3524 6.87508C8.10182 8.42219 6.37341 10.6155 5.39538 13.1654C4.41734 15.7153 4.23568 18.5019 4.87437 21.1572C5.51305 23.8125 6.94206 26.2116 8.97269 28.0378C9.81963 26.3713 11.1114 24.9718 12.7049 23.9943C14.2984 23.0169 16.1314 22.4997 18.0008 22.5C16.8883 22.5 15.8008 22.1701 14.8757 21.552C13.9507 20.9339 13.2297 20.0554 12.804 19.0276C12.3783 17.9998 12.2669 16.8688 12.4839 15.7776C12.7009 14.6865 13.2367 13.6842 14.0233 12.8975C14.81 12.1109 15.8123 11.5751 16.9034 11.3581C17.9946 11.141 19.1256 11.2524 20.1534 11.6782C21.1812 12.1039 22.0598 12.8249 22.6778 13.7499C23.2959 14.6749 23.6258 15.7625 23.6258 16.875C23.6258 18.3668 23.0332 19.7976 21.9783 20.8525C20.9234 21.9074 19.4927 22.5 18.0008 22.5C19.8701 22.4995 21.703 23.0165 23.2965 23.9937C24.8899 24.9709 26.1818 26.3701 27.0289 28.0364C29.0591 26.2101 30.4876 23.8111 31.126 21.156C31.7644 18.501 31.5826 15.7147 30.6046 13.1651C29.6266 10.6156 27.8985 8.42249 25.6482 6.87545C23.398 5.32842 20.7315 4.50015 18.0008 4.5Z" fill="white"/>
<path d="M18 22.5C21.1066 22.5 23.625 19.9816 23.625 16.875C23.625 13.7684 21.1066 11.25 18 11.25C14.8934 11.25 12.375 13.7684 12.375 16.875C12.375 19.9816 14.8934 22.5 18 22.5Z" stroke="white" stroke-width="1.5" stroke-linecap="round" stroke-linejoin="round"/>
<path d="M8.97266 28.0364C9.81909 26.3692 11.1107 24.9689 12.7042 23.9908C14.2977 23.0127 16.131 22.4949 18.0008 22.4949C19.8706 22.4949 21.7038 23.0127 23.2974 23.9908C24.8909 24.9689 26.1825 26.3692 27.0289 28.0364" stroke="white" stroke-width="1.5" stroke-linecap="round" stroke-linejoin="round"/>
<path d="M28.125 18L31.5 21.375L34.875 18" stroke="white" stroke-width="1.5" stroke-linecap="round" stroke-linejoin="round"/>
<path d="M1.125 18L4.5 14.625L7.875 18" stroke="white" stroke-width="1.5" stroke-linecap="round" stroke-linejoin="round"/>
<path d="M4.5 14.625V18C4.49894 20.8582 5.40506 23.643 7.08787 25.9533C8.77067 28.2636 11.1433 29.9802 13.8641 30.8559C16.5849 31.7315 19.5134 31.721 22.2278 30.8259C24.9422 29.9308 27.3025 28.1973 28.9688 25.875" stroke="white" stroke-width="1.5" stroke-linecap="round" stroke-linejoin="round"/>
<path d="M31.5 21.375V18C31.5011 15.1418 30.5949 12.357 28.9121 10.0467C27.2293 7.73639 24.8567 6.0198 22.1359 5.14415C19.4151 4.2685 16.4866 4.27898 13.7722 5.17408C11.0578 6.06919 8.69748 7.80272 7.03125 10.125" stroke="white" stroke-width="1.5" stroke-linecap="round" stroke-linejoin="round"/>
</g>
<defs>
<clipPath id="clip0_672_17223">
<rect width="36" height="36" fill="white"/>
</clipPath>
</defs>
</svg>
