<svg width="46" height="46" viewBox="0 0 46 46" fill="none" xmlns="http://www.w3.org/2000/svg">
<g clip-path="url(#clip0_672_17080)">
<path opacity="0.2" d="M4.3125 17.25H41.6875V34.5C41.6875 34.8812 41.5361 35.2469 41.2665 35.5165C40.9969 35.7861 40.6312 35.9375 40.25 35.9375H5.75C5.36875 35.9375 5.00312 35.7861 4.73353 35.5165C4.46395 35.2469 4.3125 34.8812 4.3125 34.5V17.25Z" fill="white"/>
<path d="M40.25 10.0625H5.75C4.95609 10.0625 4.3125 10.7061 4.3125 11.5V34.5C4.3125 35.2939 4.95609 35.9375 5.75 35.9375H40.25C41.0439 35.9375 41.6875 35.2939 41.6875 34.5V11.5C41.6875 10.7061 41.0439 10.0625 40.25 10.0625Z" stroke="white" stroke-width="2" stroke-linecap="round" stroke-linejoin="round"/>
<path d="M30.1875 30.1875H35.9375" stroke="white" stroke-width="2" stroke-linecap="round" stroke-linejoin="round"/>
<path d="M21.5625 30.1875H24.4375" stroke="white" stroke-width="2" stroke-linecap="round" stroke-linejoin="round"/>
<path d="M4.3125 17.25H41.6875" stroke="white" stroke-width="2" stroke-linecap="round" stroke-linejoin="round"/>
</g>
<defs>
<clipPath id="clip0_672_17080">
<rect width="46" height="46" fill="white"/>
</clipPath>
</defs>
</svg>
