<svg width="36" height="36" viewBox="0 0 36 36" fill="none" xmlns="http://www.w3.org/2000/svg">
<g clip-path="url(#clip0_672_17207)">
<path opacity="0.2" d="M14.0231 18.0998C13.8805 18.0097 13.76 17.8885 13.6705 17.7454C13.581 17.6023 13.5249 17.4409 13.5062 17.2732C13.4876 17.1055 13.5069 16.9357 13.5628 16.7765C13.6187 16.6172 13.7097 16.4726 13.8291 16.3533L20.25 10.125H25.8188L25.7794 9.93234L18 7.875L10.2206 9.93234L5.625 19.125L13.5 24.75L22.5 27L28.125 21.375L22.5 16.875C19.8281 19.5652 16.4855 19.6734 14.0231 18.0998Z" fill="white"/>
<path d="M28.125 21.375L22.5 27L13.5 24.75L5.625 19.125" stroke="white" stroke-width="1.5" stroke-linecap="round" stroke-linejoin="round"/>
<path d="M10.2188 9.93234L17.9981 7.875L25.7775 9.93234" stroke="white" stroke-width="1.5" stroke-linecap="round" stroke-linejoin="round"/>
<path d="M4.83256 8.49659L1.24381 15.6769C1.11044 15.9436 1.0884 16.2523 1.18253 16.5353C1.27667 16.8182 1.47928 17.0522 1.74584 17.1858L5.62428 19.125L10.2199 9.93237L6.34287 7.99456C6.21075 7.9283 6.06687 7.88872 5.91945 7.8781C5.77202 7.86747 5.62395 7.88599 5.48369 7.93262C5.34343 7.97924 5.21373 8.05304 5.10201 8.14981C4.99029 8.24658 4.89873 8.36442 4.83256 8.49659Z" stroke="white" stroke-width="1.5" stroke-linecap="round" stroke-linejoin="round"/>
<path d="M30.3769 19.125L34.2553 17.1858C34.5219 17.0522 34.7245 16.8182 34.8186 16.5353C34.9128 16.2523 34.8907 15.9436 34.7573 15.6769L31.1686 8.49659C31.1024 8.36442 31.0109 8.24658 30.8991 8.14981C30.7874 8.05304 30.6577 7.97924 30.5175 7.93262C30.3772 7.88599 30.2291 7.86747 30.0817 7.8781C29.9343 7.88872 29.7904 7.9283 29.6583 7.99456L25.7812 9.93237L30.3769 19.125Z" stroke="white" stroke-width="1.5" stroke-linecap="round" stroke-linejoin="round"/>
<path d="M25.8756 10.125H20.2506L13.8297 16.3533C13.7103 16.4726 13.6193 16.6172 13.5635 16.7765C13.5076 16.9357 13.4882 17.1055 13.5069 17.2732C13.5255 17.4409 13.5817 17.6023 13.6711 17.7454C13.7606 17.8885 13.8811 18.0097 14.0238 18.0998C16.4861 19.6734 19.8288 19.5652 22.5006 16.875L28.1256 21.375L30.3756 19.125" stroke="white" stroke-width="1.5" stroke-linecap="round" stroke-linejoin="round"/>
<path d="M17.4459 30.375L11.5791 28.9083L7.875 26.2617" stroke="white" stroke-width="1.5" stroke-linecap="round" stroke-linejoin="round"/>
</g>
<defs>
<clipPath id="clip0_672_17207">
<rect width="36" height="36" fill="white"/>
</clipPath>
</defs>
</svg>
