<svg width="20" height="20" viewBox="0 0 20 20" fill="none" xmlns="http://www.w3.org/2000/svg">
<mask id="mask0_717_15060" style="mask-type:alpha" maskUnits="userSpaceOnUse" x="0" y="0" width="20" height="20">
<rect width="20" height="20" fill="#D9D9D9"/>
</mask>
<g mask="url(#mask0_717_15060)">
<path d="M2.9165 20.0004C2.57567 20.0004 2.28213 19.8786 2.03588 19.635C1.78963 19.3914 1.6665 19.0965 1.6665 18.7504C1.6665 18.4096 1.78963 18.116 2.03588 17.8698C2.28213 17.6235 2.57567 17.5004 2.9165 17.5004H17.0832C17.424 17.5004 17.7175 17.6222 17.9638 17.8658C18.21 18.1094 18.3332 18.4043 18.3332 18.7504C18.3332 19.0912 18.21 19.3848 17.9638 19.631C17.7175 19.8773 17.424 20.0004 17.0832 20.0004H2.9165ZM4.99984 13.6783H6.03025L12.9469 6.77437L12.423 6.24249L11.9038 5.73124L4.99984 12.6479V13.6783ZM3.74984 14.175V12.43C3.74984 12.3296 3.76664 12.234 3.80025 12.1431C3.834 12.0523 3.88984 11.9678 3.96775 11.8898L13.0913 2.78729C13.212 2.66659 13.349 2.57527 13.5023 2.51333C13.6555 2.45138 13.8139 2.42041 13.9773 2.42041C14.1462 2.42041 14.3068 2.45138 14.459 2.51333C14.6112 2.57527 14.752 2.6709 14.8813 2.8002L15.8828 3.81458C16.0121 3.93527 16.1055 4.07305 16.1632 4.22791C16.2209 4.38291 16.2498 4.54479 16.2498 4.71354C16.2498 4.86854 16.2209 5.02263 16.1632 5.17583C16.1055 5.32916 16.0121 5.47048 15.8828 5.59979L6.78025 14.7023C6.7022 14.7803 6.61782 14.8375 6.52713 14.8737C6.4363 14.9101 6.34067 14.9283 6.24025 14.9283H4.50317C4.28831 14.9283 4.10907 14.8565 3.96546 14.7127C3.82171 14.5691 3.74984 14.3899 3.74984 14.175ZM12.9469 6.77437L12.423 6.24249L11.9038 5.73124L12.9469 6.77437Z" fill="white"/>
</g>
</svg>
