<svg width="26" height="26" viewBox="0 0 26 26" fill="none" xmlns="http://www.w3.org/2000/svg">
<g opacity="0.6" clip-path="url(#clip0_717_8020)">
<path d="M13 22.75C18.3848 22.75 22.75 18.3848 22.75 13C22.75 7.61522 18.3848 3.25 13 3.25C7.61522 3.25 3.25 7.61522 3.25 13C3.25 18.3848 7.61522 22.75 13 22.75Z" stroke="white" stroke-linecap="round" stroke-linejoin="round"/>
<path d="M13 16.25C15.2437 16.25 17.0625 14.4312 17.0625 12.1875C17.0625 9.94384 15.2437 8.125 13 8.125C10.7563 8.125 8.9375 9.94384 8.9375 12.1875C8.9375 14.4312 10.7563 16.25 13 16.25Z" stroke="white" stroke-linecap="round" stroke-linejoin="round"/>
<path d="M6.48047 20.2485C7.09178 19.0444 8.02458 18.0331 9.17547 17.3267C10.3264 16.6203 11.6504 16.2463 13.0008 16.2463C14.3512 16.2463 15.6752 16.6203 16.8261 17.3267C17.977 18.0331 18.9098 19.0444 19.5211 20.2485" stroke="white" stroke-linecap="round" stroke-linejoin="round"/>
</g>
<defs>
<clipPath id="clip0_717_8020">
<rect width="26" height="26" fill="white"/>
</clipPath>
</defs>
</svg>
