<svg width="36" height="36" viewBox="0 0 36 36" fill="none" xmlns="http://www.w3.org/2000/svg">
<g clip-path="url(#clip0_672_17239)">
<path opacity="0.2" d="M6.34922 32.3592C6.18536 32.4971 5.98557 32.5853 5.77331 32.6135C5.56105 32.6417 5.34514 32.6088 5.15095 32.5186C4.95676 32.4283 4.79236 32.2846 4.67705 32.1041C4.56174 31.9237 4.50032 31.7141 4.5 31.5V9C4.5 8.70163 4.61853 8.41548 4.82951 8.20451C5.04048 7.99353 5.32663 7.875 5.625 7.875H30.375C30.6734 7.875 30.9595 7.99353 31.1705 8.20451C31.3815 8.41548 31.5 8.70163 31.5 9V27C31.5 27.2984 31.3815 27.5845 31.1705 27.7955C30.9595 28.0065 30.6734 28.125 30.375 28.125H11.25L6.34922 32.3592Z" fill="white"/>
<path d="M6.34922 32.3592C6.18536 32.4971 5.98557 32.5853 5.77331 32.6135C5.56105 32.6417 5.34514 32.6088 5.15095 32.5186C4.95676 32.4283 4.79236 32.2846 4.67705 32.1041C4.56174 31.9237 4.50032 31.7141 4.5 31.5V9C4.5 8.70163 4.61853 8.41548 4.82951 8.20451C5.04048 7.99353 5.32663 7.875 5.625 7.875H30.375C30.6734 7.875 30.9595 7.99353 31.1705 8.20451C31.3815 8.41548 31.5 8.70163 31.5 9V27C31.5 27.2984 31.3815 27.5845 31.1705 27.7955C30.9595 28.0065 30.6734 28.125 30.375 28.125H11.25L6.34922 32.3592Z" stroke="white" stroke-width="1.5" stroke-linecap="round" stroke-linejoin="round"/>
<path d="M13.5 15.75H22.5" stroke="white" stroke-width="1.5" stroke-linecap="round" stroke-linejoin="round"/>
<path d="M13.5 20.25H22.5" stroke="white" stroke-width="1.5" stroke-linecap="round" stroke-linejoin="round"/>
</g>
<defs>
<clipPath id="clip0_672_17239">
<rect width="36" height="36" fill="white"/>
</clipPath>
</defs>
</svg>
