<svg width="18" height="18" viewBox="0 0 18 18" fill="none" xmlns="http://www.w3.org/2000/svg">
<mask id="mask0_717_7988" style="mask-type:alpha" maskUnits="userSpaceOnUse" x="0" y="0" width="18" height="18">
<rect width="18" height="18" fill="#1BB7FA"/>
</mask>
<g mask="url(#mask0_717_7988)">
<path d="M8.04563 9.73802L6.95194 8.65858C6.80556 8.51221 6.63963 8.43902 6.45413 8.43902C6.26863 8.43902 6.10413 8.51077 5.96063 8.65427C5.81425 8.80064 5.74106 8.96895 5.74106 9.1592C5.74106 9.34945 5.81425 9.51777 5.96063 9.66414L7.50056 11.2043C7.65906 11.3626 7.84075 11.4418 8.04563 11.4418C8.2505 11.4418 8.43219 11.3626 8.59069 11.2043L12.0431 7.75164C12.1865 7.60827 12.2589 7.43995 12.2604 7.2467C12.2619 7.05345 12.1895 6.88514 12.0431 6.74177C11.8996 6.59827 11.7351 6.52727 11.5496 6.52877C11.3641 6.53027 11.1997 6.6027 11.0563 6.74608L8.04563 9.73802ZM6.1005 16.2557L5.00775 14.4548L2.96756 13.9905C2.76869 13.9471 2.61106 13.8493 2.49469 13.6971C2.37819 13.545 2.33244 13.368 2.35744 13.1661L2.54494 11.0741L1.15669 9.51714C1.02619 9.35864 0.960938 9.1862 0.960938 8.99983C0.960938 8.81346 1.02619 8.64102 1.15669 8.48252L2.54494 6.92552L2.35744 4.83358C2.33244 4.6317 2.37819 4.4547 2.49469 4.30258C2.61106 4.15033 2.76869 4.05252 2.96756 4.00914L5.00775 3.54489L6.1005 1.74396C6.2 1.58558 6.34056 1.47377 6.52219 1.40852C6.70381 1.34327 6.88788 1.34639 7.07438 1.41789L9.00188 2.25264L10.9294 1.41789C11.1159 1.34639 11.2999 1.34327 11.4816 1.40852C11.6632 1.47377 11.8038 1.58558 11.9033 1.74396L12.996 3.54489L15.0362 4.00914C15.2351 4.05252 15.3927 4.15033 15.5091 4.30258C15.6256 4.4547 15.6713 4.6317 15.6463 4.83358L15.4588 6.92552L16.8471 8.48252C16.9776 8.64102 17.0428 8.81346 17.0428 8.99983C17.0428 9.1862 16.9776 9.35864 16.8471 9.51714L15.4588 11.0741L15.6463 13.1661C15.6713 13.368 15.6256 13.545 15.5091 13.6971C15.3927 13.8493 15.2351 13.9471 15.0362 13.9905L12.996 14.4548L11.9033 16.2557C11.8038 16.4141 11.6632 16.5259 11.4816 16.5911C11.2999 16.6564 11.1159 16.6533 10.9294 16.5818L9.00188 15.747L7.07438 16.5818C6.88788 16.6533 6.70381 16.6564 6.52219 16.5911C6.34056 16.5259 6.2 16.4141 6.1005 16.2557Z" fill="#1BB7FA"/>
</g>
</svg>
