<svg width="30" height="30" viewBox="0 0 30 30" fill="none" xmlns="http://www.w3.org/2000/svg">
<g clip-path="url(#clip0_717_14765)">
<path opacity="0.2" d="M24.375 16.875H5.625C5.10723 16.875 4.6875 17.2947 4.6875 17.8125V22.5C4.6875 23.0178 5.10723 23.4375 5.625 23.4375H24.375C24.8928 23.4375 25.3125 23.0178 25.3125 22.5V17.8125C25.3125 17.2947 24.8928 16.875 24.375 16.875Z" fill="white"/>
<path opacity="0.2" d="M24.375 6.5625H5.625C5.10723 6.5625 4.6875 6.98223 4.6875 7.5V12.1875C4.6875 12.7053 5.10723 13.125 5.625 13.125H24.375C24.8928 13.125 25.3125 12.7053 25.3125 12.1875V7.5C25.3125 6.98223 24.8928 6.5625 24.375 6.5625Z" fill="white"/>
<path d="M24.375 16.875H5.625C5.10723 16.875 4.6875 17.2947 4.6875 17.8125V22.5C4.6875 23.0178 5.10723 23.4375 5.625 23.4375H24.375C24.8928 23.4375 25.3125 23.0178 25.3125 22.5V17.8125C25.3125 17.2947 24.8928 16.875 24.375 16.875Z" stroke="white" stroke-width="2" stroke-linecap="round" stroke-linejoin="round"/>
<path d="M24.375 6.5625H5.625C5.10723 6.5625 4.6875 6.98223 4.6875 7.5V12.1875C4.6875 12.7053 5.10723 13.125 5.625 13.125H24.375C24.8928 13.125 25.3125 12.7053 25.3125 12.1875V7.5C25.3125 6.98223 24.8928 6.5625 24.375 6.5625Z" stroke="white" stroke-width="1.5" stroke-linecap="round" stroke-linejoin="round"/>
</g>
<defs>
<clipPath id="clip0_717_14765">
<rect width="30" height="30" fill="white"/>
</clipPath>
</defs>
</svg>
