<svg width="16" height="16" viewBox="0 0 16 16" fill="none" xmlns="http://www.w3.org/2000/svg">
<path fill-rule="evenodd" clip-rule="evenodd" d="M5.49687 0.437838C3.50884 1.1044 1.81485 2.56221 0.871305 4.40708C0.542175 5.04354 0.305187 5.7187 0.160362 6.41965C-0.199497 8.15701 0.0506517 10.0105 0.866919 11.593C1.39794 12.6251 2.16155 13.5454 3.08316 14.2636C3.95648 14.943 4.97023 15.4505 6.04983 15.73C7.41028 16.0869 8.85851 16.0783 10.2278 15.773C11.4653 15.4934 12.6371 14.9129 13.5718 14.07C14.5593 13.1799 15.2658 12.0102 15.6389 10.7501C16.0469 9.37832 16.0996 7.91189 15.8452 6.50137C13.2866 6.50137 10.7237 6.50137 8.16511 6.50137C8.16511 7.54206 8.16511 8.58274 8.16511 9.62344C9.64845 9.62344 11.1318 9.62344 12.6151 9.62344C12.444 10.6211 11.8384 11.5328 10.9826 12.0962C10.4428 12.4531 9.82401 12.681 9.18327 12.7928C8.54254 12.9003 7.87548 12.9132 7.23475 12.7885C6.58085 12.6595 5.96205 12.3929 5.41786 12.0188C4.54894 11.421 3.88627 10.548 3.54834 9.56323C3.20164 8.56124 3.19726 7.44744 3.54834 6.44976C3.7941 5.74451 4.19785 5.09513 4.73326 4.56189C5.39154 3.89964 6.24731 3.42659 7.17331 3.23308C7.96324 3.06967 8.79707 3.09976 9.56947 3.32768C10.2278 3.52121 10.8334 3.87813 11.3293 4.34258C11.8296 3.85234 12.3299 3.36209 12.8302 2.87185C13.0935 2.60953 13.37 2.35579 13.6245 2.08487C12.8653 1.39681 11.97 0.842056 10.9957 0.489428C9.24032 -0.147016 7.26545 -0.159928 5.49687 0.437838Z" fill="white"/>
<path fill-rule="evenodd" clip-rule="evenodd" d="M5.49666 0.437846C7.26085 -0.15992 9.24011 -0.147007 10.9955 0.485145C11.9698 0.837774 12.8607 1.38822 13.6243 2.08059C13.3697 2.35151 13.0933 2.60523 12.8299 2.86755C12.3296 3.3578 11.8293 3.84804 11.3291 4.33827C10.8331 3.87384 10.2275 3.52122 9.56924 3.3234C8.79686 3.09548 7.96303 3.06108 7.17308 3.22878C6.25149 3.42231 5.39572 3.89534 4.73303 4.55761C4.19764 5.08656 3.79387 5.74021 3.54813 6.44546C2.65725 5.76601 1.76636 5.09085 0.871094 4.4114C1.81464 2.56222 3.50863 1.10441 5.49666 0.437846Z" fill="#EA4335"/>
<path fill-rule="evenodd" clip-rule="evenodd" d="M0.164036 6.4154C0.308861 5.71875 0.545849 5.03928 0.875 4.40283C1.76586 5.08228 2.65675 5.75744 3.55202 6.4369C3.20093 7.4389 3.20093 8.55269 3.55202 9.55038C2.66113 10.2298 1.77027 10.9093 0.879387 11.5845C0.0543257 10.0062 -0.195823 8.15276 0.164036 6.4154Z" fill="#FBBC05"/>
<path fill-rule="evenodd" clip-rule="evenodd" d="M8.16454 6.49707C10.7231 6.49707 13.286 6.49707 15.8446 6.49707C16.099 7.90329 16.042 9.36973 15.6383 10.7458C15.2652 12.0058 14.5587 13.1756 13.5713 14.0657C12.7067 13.4078 11.8422 12.7498 10.9776 12.0919C11.8334 11.5285 12.439 10.6168 12.6102 9.61914C11.1268 9.61914 9.64348 9.61914 8.16016 9.61914C8.16454 8.57845 8.16454 7.53775 8.16454 6.49707Z" fill="#4285F4"/>
<path fill-rule="evenodd" clip-rule="evenodd" d="M0.871094 11.5888C1.76198 10.9136 2.65286 10.2342 3.54372 9.55469C3.88603 10.5395 4.54432 11.4124 5.41327 12.0102C5.95745 12.3843 6.58062 12.651 7.23013 12.78C7.87086 12.909 8.53353 12.8918 9.17865 12.7843C9.81939 12.6725 10.4382 12.4445 10.978 12.0876C11.8425 12.7456 12.7071 13.4035 13.5716 14.0615C12.6369 14.9087 11.4651 15.4849 10.2275 15.7644C8.85829 16.0697 7.41007 16.0784 6.04961 15.7214C4.97002 15.4419 3.95626 14.9388 3.08293 14.255C2.16572 13.5412 1.40212 12.6209 0.871094 11.5888Z" fill="#34A853"/>
</svg>
