<svg width="1412" height="306" viewBox="0 0 1412 306" fill="none" xmlns="http://www.w3.org/2000/svg">
<path d="M1375.53 230.292H1392.02V234.135H1385.8V253.419H1381.75V234.135H1375.53V230.292ZM1395.58 230.292H1399.35L1403.82 239.235L1408.23 230.292H1412V253.419H1408.02V238.676L1405.22 244.476H1402.43L1399.56 238.537V253.419H1395.58V230.292Z" fill="#1AB6F9"/>
<g clip-path="url(#clip0_573_2)">
<mask id="mask0_573_2" style="mask-type:luminance" maskUnits="userSpaceOnUse" x="0" y="-1" width="213" height="307">
<path d="M212.431 237.775L154.517 305.399H50.4837C22.7228 305.399 0.00585938 282.685 0.00585938 254.924V204.446H108.061L145.975 160.18L212.434 237.778L212.431 237.775ZM145.972 145.221L108.058 100.952H0.00585938V50.4774C0.00585938 22.7135 22.7198 -0.000427246 50.4837 -0.000427246H154.517L212.431 67.6231L145.972 145.221Z" fill="white"/>
</mask>
<g mask="url(#mask0_573_2)">
<path d="M212.431 -0.000427246H0.00585938V305.396H212.431V-0.000427246Z" fill="white"/>
</g>
<mask id="mask1_573_2" style="mask-type:luminance" maskUnits="userSpaceOnUse" x="152" y="0" width="286" height="306">
<path d="M285.281 152.7L329.597 100.953H437.652V50.4778C437.652 22.714 414.938 0 387.175 0H283.141L217.752 76.3498L152.363 152.7L217.752 229.049L283.141 305.399H387.175C414.935 305.399 437.652 282.685 437.652 254.924V204.45H329.597L285.281 152.703V152.7Z" fill="white"/>
</mask>
<g mask="url(#mask1_573_2)">
<path d="M437.652 0H152.363V305.396H437.652V0Z" fill="#1AB6F9"/>
</g>
<path opacity="0.15" fill-rule="evenodd" clip-rule="evenodd" d="M145.98 133.704L202.575 67.6236L151.078 7.49292H50.4918C26.8632 7.49292 7.50684 26.8493 7.50684 50.4779V93.4628H111.516L145.98 133.707V133.704Z" fill="white"/>
</g>
<path d="M1264.3 252.204V163.252H1347.58V184.043H1292.54V198.218H1333.17V217.946H1292.54V231.413H1349V252.204H1264.3Z" fill="white"/>
<path d="M1198.96 184.161C1193.6 184.161 1189.39 184.397 1186.32 184.87C1185.06 185.027 1184.03 185.579 1183.24 186.524C1182.46 187.469 1182.06 188.571 1182.06 189.831V225.979C1182.06 227.318 1182.46 228.46 1183.24 229.405C1184.03 230.35 1185.06 230.901 1186.32 231.059C1189.7 231.452 1193.92 231.649 1198.96 231.649C1204.07 231.649 1208.33 231.452 1211.71 231.059C1212.97 230.901 1214 230.35 1214.79 229.405C1215.57 228.46 1215.97 227.318 1215.97 225.979V202.589H1244.2V252.204H1215.97V239.446H1213.6C1212.26 248.424 1206.52 252.913 1196.36 252.913C1185.41 252.913 1177.34 252.676 1172.14 252.204C1166.31 251.653 1161.78 249.802 1158.56 246.652C1155.41 243.423 1153.83 239.17 1153.83 233.894V181.68C1153.83 176.404 1155.41 172.191 1158.56 169.041C1161.78 165.812 1166.31 163.922 1172.14 163.37C1176.47 163.055 1185.33 162.898 1198.72 162.898H1239.83V184.161H1198.96Z" fill="white"/>
<path d="M1042.59 252.204V163.252H1067.52L1104.73 188.059V163.252H1132.96V252.204H1104.73V217.119L1070.83 194.556V252.204H1042.59Z" fill="white"/>
<path d="M996.839 163.252C999.753 163.252 1001.8 164.551 1002.98 167.15L1022 209.559C1023.18 212.158 1023.77 214.835 1023.77 217.592V252.204H995.422V234.602H958.92V252.204H930.687V217.592C930.687 214.678 931.238 212 932.34 209.559L951.596 167.15C952.619 164.551 954.588 163.252 957.502 163.252H996.839ZM960.219 214.756H994.24L979.002 182.389H975.34L960.219 214.756Z" fill="white"/>
<path d="M821.691 252.204V163.252H849.924V194.202H883.828V163.252H912.061V252.204H883.828V215.347H849.924V252.204H821.691Z" fill="white"/>
<path d="M773.472 219.009H801.705V233.893C801.705 239.17 800.091 243.423 796.862 246.651C793.633 249.802 789.144 251.652 783.395 252.204C778.197 252.676 769.22 252.912 756.462 252.912C743.782 252.912 734.844 252.676 729.646 252.204C723.818 251.652 719.29 249.802 716.061 246.651C712.911 243.423 711.336 239.17 711.336 233.893V181.68C711.336 176.404 712.911 172.151 716.061 168.922C719.29 165.693 723.818 163.803 729.646 163.252C734.844 162.779 743.782 162.543 756.462 162.543C769.22 162.543 778.197 162.779 783.395 163.252C789.223 163.803 793.712 165.693 796.862 168.922C800.091 172.151 801.705 176.404 801.705 181.68L801.587 196.446H773.472V189.477C773.472 188.138 773.078 186.996 772.291 186.051C771.503 185.106 770.48 184.555 769.22 184.397C765.124 183.924 760.872 183.688 756.462 183.688C752.13 183.688 747.917 183.924 743.822 184.397C742.562 184.555 741.538 185.106 740.75 186.051C739.963 186.996 739.569 188.138 739.569 189.477V225.979C739.569 227.318 739.963 228.459 740.75 229.404C741.538 230.35 742.562 230.901 743.822 231.058C747.208 231.452 751.421 231.649 756.462 231.649C761.58 231.649 765.833 231.452 769.22 231.058C770.48 230.901 771.503 230.35 772.291 229.404C773.078 228.459 773.472 227.318 773.472 225.979V219.009Z" fill="white"/>
<path d="M600.993 163.252H627.218V178.018L646.118 191.603L665.019 178.018V163.252H691.244V185.106C691.244 188.02 690.063 190.264 687.7 191.839L667.145 206.605L689.118 222.435C691.48 224.167 692.662 226.412 692.662 229.168V252.44H666.437V236.138L646.118 221.726L625.918 236.138V252.44H599.575V229.168C599.575 226.412 600.756 224.167 603.119 222.435L625.091 206.605L604.537 191.839C602.174 190.264 600.993 188.02 600.993 185.106V163.252Z" fill="white"/>
<path d="M498.756 252.204V163.252H582.037V184.043H526.989V198.218H567.626V217.946H526.989V231.413H583.455V252.204H498.756Z" fill="white"/>
<path d="M1338.55 122.76C1335.56 122.918 1328.94 122.997 1318.7 122.997H1294.84L1294.72 145.678H1266.49V56.7258H1318.7C1327.45 56.7258 1334.06 56.844 1338.55 57.0802C1343.9 57.3952 1348.28 59.4428 1351.66 63.223C1355.13 66.9244 1356.86 71.5708 1356.86 77.1623V102.56C1356.86 108.23 1355.17 112.916 1351.78 116.618C1348.39 120.319 1343.98 122.367 1338.55 122.76ZM1324.26 77.8711C1321.74 77.8711 1318.19 77.9105 1313.62 77.9892C1309.14 77.9892 1304.96 78.0286 1301.1 78.1073C1297.24 78.1073 1295.12 78.1073 1294.72 78.1073V101.497H1324.26C1325.59 101.497 1326.66 101.103 1327.45 100.316C1328.23 99.5282 1328.63 98.5044 1328.63 97.2444V82.36C1328.63 81.1 1328.23 80.0762 1327.45 79.2886C1326.66 78.4223 1325.59 77.9498 1324.26 77.8711Z" fill="white"/>
<path d="M1162.18 127.368V75.1544C1162.18 69.8779 1163.75 65.6252 1166.9 62.3963C1170.13 59.1675 1174.66 57.2774 1180.49 56.7261C1185.68 56.2536 1194.62 56.0173 1207.3 56.0173C1220.06 56.0173 1229.04 56.2536 1234.24 56.7261C1240.06 57.2774 1244.55 59.1675 1247.7 62.3963C1250.93 65.6252 1252.55 69.8779 1252.55 75.1544V127.368C1252.55 132.644 1250.93 136.897 1247.7 140.126C1244.47 143.276 1239.98 145.127 1234.24 145.678C1229.04 146.15 1220.06 146.387 1207.3 146.387C1194.62 146.387 1185.68 146.15 1180.49 145.678C1174.66 145.127 1170.13 143.276 1166.9 140.126C1163.75 136.897 1162.18 132.644 1162.18 127.368ZM1194.66 124.533C1198.05 124.926 1202.26 125.123 1207.3 125.123C1212.42 125.123 1216.67 124.926 1220.06 124.533C1221.32 124.375 1222.34 123.824 1223.13 122.879C1223.92 121.934 1224.31 120.792 1224.31 119.453V82.9509C1224.31 81.6121 1223.92 80.4702 1223.13 79.5252C1222.34 78.5801 1221.32 78.0289 1220.06 77.8714C1215.96 77.3988 1211.71 77.1626 1207.3 77.1626C1202.97 77.1626 1198.76 77.3988 1194.66 77.8714C1193.4 78.0289 1192.38 78.5801 1191.59 79.5252C1190.8 80.4702 1190.41 81.6121 1190.41 82.9509V119.453C1190.41 120.792 1190.8 121.934 1191.59 122.879C1192.38 123.824 1193.4 124.375 1194.66 124.533Z" fill="white"/>
<path d="M1058.03 145.678V56.7258H1086.26V87.6759H1120.16V56.7258H1148.39V145.678H1120.16V108.821H1086.26V145.678H1058.03Z" fill="white"/>
<path d="M1045.72 112.601V127.367C1045.72 132.88 1044.02 137.33 1040.64 140.716C1037.33 144.024 1032.92 145.678 1027.41 145.678H961.135V124.887H1011.93C1013.19 124.887 1014.18 124.493 1014.88 123.705C1015.67 122.918 1016.07 121.894 1016.07 120.634V118.153C1016.07 116.893 1015.67 115.83 1014.88 114.964C1014.18 114.019 1013.19 113.468 1011.93 113.31L973.657 107.758C969.089 107.207 965.388 105.277 962.552 101.97C959.717 98.6619 958.3 94.6849 958.3 90.0385V75.1541C958.3 69.6414 959.954 65.1918 963.261 61.8054C966.648 58.419 971.097 56.7258 976.61 56.7258H1040.16V77.5167H993.621C992.361 77.5167 991.337 77.9104 990.549 78.698C989.841 79.4855 989.486 80.5093 989.486 81.7694V84.6045C989.486 85.7858 989.841 86.8489 990.549 87.794C991.337 88.6603 992.361 89.1722 993.621 89.3297L1030.36 94.7636C1035.01 95.4724 1038.71 97.4806 1041.46 100.788C1044.3 104.017 1045.72 107.955 1045.72 112.601Z" fill="white"/>
<path d="M907.984 94.6457H948.975V113.074H907.984V94.6457Z" fill="#1AB6F9"/>
<path d="M878.945 145.323C874.456 145.559 867.841 145.678 859.099 145.678H806.886V56.7258H859.099C867.841 56.7258 874.456 56.844 878.945 57.0802C884.3 57.3952 888.671 59.4428 892.057 63.223C895.523 66.9244 897.255 71.5708 897.255 77.1623V125.241C897.255 130.833 895.523 135.518 892.057 139.299C888.671 143 884.3 145.008 878.945 145.323ZM864.651 77.8711C862.131 77.8711 858.587 77.9105 854.02 77.9892C849.531 77.9892 845.357 78.0286 841.498 78.1073C837.639 78.1073 835.513 78.1073 835.119 78.1073V124.178C835.67 124.178 837.757 124.217 841.38 124.296C845.081 124.296 849.255 124.335 853.901 124.414C858.548 124.414 862.131 124.414 864.651 124.414C865.911 124.414 866.935 124.02 867.723 123.233C868.589 122.367 869.022 121.264 869.022 119.925V82.36C869.022 81.1 868.628 80.0762 867.841 79.2886C867.053 78.4223 865.99 77.9498 864.651 77.8711Z" fill="white"/>
<path d="M702.941 145.678V56.7258H753.265C762.085 56.7258 768.7 56.844 773.111 57.0802C778.466 57.3952 782.837 59.4428 786.223 63.223C789.688 66.9244 791.421 71.5708 791.421 77.1623V83.8957C791.421 89.4084 789.767 94.0549 786.459 97.835C783.23 101.536 779.017 103.584 773.819 103.978V105.868C785.79 106.419 791.775 111.932 791.775 122.406V136.818C791.775 138.865 792.169 140.637 792.956 142.134C793.823 143.551 794.846 144.26 796.028 144.26V145.678H770.394C767.795 145.678 765.747 145.008 764.251 143.669C762.833 142.252 762.124 140.283 762.124 137.763V122.288C762.124 120.319 761.534 118.783 760.353 117.681C759.171 116.5 757.636 115.909 755.745 115.909H731.174V145.678H702.941ZM758.817 77.9892C741.097 77.9892 731.883 77.9498 731.174 77.8711V96.1812C731.332 96.1812 735.151 96.2206 742.633 96.2993C750.115 96.2993 755.509 96.2993 758.817 96.2993C760.156 96.2993 761.219 95.9056 762.006 95.118C762.794 94.3305 763.188 93.2673 763.188 91.9285V82.2419C763.188 80.9031 762.754 79.8399 761.888 79.0524C761.101 78.2648 760.077 77.9105 758.817 77.9892Z" fill="white"/>
<path d="M664.282 56.7258C667.195 56.7258 669.243 58.0253 670.424 60.6241L689.443 103.033C690.625 105.632 691.215 108.309 691.215 111.066V145.678H662.864V128.076H626.362V145.678H598.129V111.066C598.129 108.152 598.68 105.474 599.783 103.033L619.038 60.6241C620.062 58.0253 622.031 56.7258 624.944 56.7258H664.282ZM627.661 108.23H661.683L646.444 75.8629H642.782L627.661 108.23Z" fill="white"/>
<path d="M560.065 112.483H588.298V127.367C588.298 132.644 586.684 136.897 583.455 140.125C580.226 143.276 575.737 145.126 569.988 145.678C564.79 146.15 555.812 146.386 543.054 146.386C530.375 146.386 521.437 146.15 516.239 145.678C510.411 145.126 505.883 143.276 502.654 140.125C499.504 136.897 497.929 132.644 497.929 127.367V75.154C497.929 69.8775 499.504 65.6249 502.654 62.396C505.883 59.1671 510.411 57.277 516.239 56.7258C521.437 56.2532 530.375 56.017 543.054 56.017C555.812 56.017 564.79 56.2532 569.988 56.7258C575.816 57.277 580.305 59.1671 583.455 62.396C586.684 65.6249 588.298 69.8775 588.298 75.154L588.18 89.9202H560.065V82.9506C560.065 81.6118 559.671 80.4699 558.884 79.5248C558.096 78.5798 557.072 78.0285 555.812 77.871C551.717 77.3985 547.464 77.1622 543.054 77.1622C538.723 77.1622 534.51 77.3985 530.414 77.871C529.154 78.0285 528.131 78.5798 527.343 79.5248C526.556 80.4699 526.162 81.6118 526.162 82.9506V119.453C526.162 120.792 526.556 121.933 527.343 122.878C528.131 123.824 529.154 124.375 530.414 124.532C533.801 124.926 538.014 125.123 543.054 125.123C548.173 125.123 552.426 124.926 555.812 124.532C557.072 124.375 558.096 123.824 558.884 122.878C559.671 121.933 560.065 120.792 560.065 119.453V112.483Z" fill="white"/>
<defs>
<clipPath id="clip0_573_2">
<rect width="437.661" height="305.396" fill="white"/>
</clipPath>
</defs>
</svg>
